<svg width="79" height="69" viewBox="0 0 79 69" fill="none" xmlns="http://www.w3.org/2000/svg">
<path d="M44.1868 0L44.8074 4.62468C46.017 13.6382 52.3415 21.1335 61.0231 23.8421L63.2166 24.5265L59.8269 25.0148C51.4089 26.2275 44.3125 31.914 41.2944 39.8653L40.9221 40.8463L40.7101 39.8187C38.9919 31.4891 32.8878 24.7487 24.7688 22.2156L21.4995 21.1956L23.7794 20.8672C32.7779 19.5709 40.2101 13.1777 42.8367 4.47393L44.1868 0Z" fill="url(#paint0_linear_17_178)"/>
<path d="M44.1868 0L44.8074 4.62468C46.017 13.6382 52.3415 21.1335 61.0231 23.8421L63.2166 24.5265L59.8269 25.0148C51.4089 26.2275 44.3125 31.914 41.2944 39.8653L40.9221 40.8463L40.7101 39.8187C38.9919 31.4891 32.8878 24.7487 24.7688 22.2156L21.4995 21.1956L23.7794 20.8672C32.7779 19.5709 40.2101 13.1777 42.8367 4.47393L44.1868 0Z" fill="url(#paint1_linear_17_178)"/>
<path d="M59.9332 2.73042L60.1553 4.3855C60.5882 7.61126 62.8516 10.2937 65.9586 11.263L66.7436 11.5079L66.5038 11.5425C62.9942 12.0481 60.1839 14.71 59.489 18.1871L58.8999 21.1343L58.4031 17.4371C57.9696 14.212 55.7064 11.5303 52.6 10.5612L51.8139 10.3159L52.6298 10.1984C55.8502 9.73444 58.51 7.44644 59.45 4.33155L59.9332 2.73042Z" fill="url(#paint2_linear_17_178)"/>
<path d="M59.9332 2.73042L60.1553 4.3855C60.5882 7.61126 62.8516 10.2937 65.9586 11.263L66.7436 11.5079L66.5038 11.5425C62.9942 12.0481 60.1839 14.71 59.489 18.1871L58.8999 21.1343L58.4031 17.4371C57.9696 14.212 55.7064 11.5303 52.6 10.5612L51.8139 10.3159L52.6298 10.1984C55.8502 9.73444 58.51 7.44644 59.45 4.33155L59.9332 2.73042Z" fill="url(#paint3_linear_17_178)"/>
<path d="M34.8114 32.4494H18.0437C17.2329 32.4494 16.2875 33.0401 15.932 33.7689L13.1526 39.4674C12.9831 39.815 12.973 40.1485 13.1245 40.3956L21.1924 53.5494C21.9612 54.803 23.9604 55.0846 26.0949 54.2401L39.3881 48.9807L38.9718 43.9506C38.6219 39.7223 37.1454 35.7764 34.8114 32.4494Z" fill="url(#paint4_linear_17_178)"/>
<path d="M34.8114 32.4494H18.0437C17.2329 32.4494 16.2875 33.0401 15.932 33.7689L13.1526 39.4674C12.9831 39.815 12.973 40.1485 13.1245 40.3956L21.1924 53.5494C21.9612 54.803 23.9604 55.0846 26.0949 54.2401L39.3881 48.9807L38.9718 43.9506C38.6219 39.7223 37.1454 35.7764 34.8114 32.4494Z" fill="url(#paint5_linear_17_178)"/>
<path d="M41.065 48.3172L76.7871 34.1839C77.9452 33.7257 78.2057 32.4494 77.141 32.4494H49.5042C45.9882 35.4752 43.3731 39.5428 42.1407 44.228L41.065 48.3172Z" fill="url(#paint6_linear_17_178)"/>
<path d="M41.065 48.3172L76.7871 34.1839C77.9452 33.7257 78.2057 32.4494 77.141 32.4494H49.5042C45.9882 35.4752 43.3731 39.5428 42.1407 44.228L41.065 48.3172Z" fill="url(#paint7_linear_17_178)"/>
<path d="M0.871614 64.5395C0.265508 64.7793 -0.175683 64.461 0.0685687 63.9603L9.71928 44.1734C10.2943 42.9945 12.1696 42.4073 12.6835 43.2452L20.1225 55.3737C20.5052 55.9978 19.827 57.0398 18.7643 57.4603L0.871614 64.5395Z" fill="url(#paint8_linear_17_178)"/>
<path d="M0.871614 64.5395C0.265508 64.7793 -0.175683 64.461 0.0685687 63.9603L9.71928 44.1734C10.2943 42.9945 12.1696 42.4073 12.6835 43.2452L20.1225 55.3737C20.5052 55.9978 19.827 57.0398 18.7643 57.4603L0.871614 64.5395Z" fill="url(#paint9_linear_17_178)"/>
<path d="M3.22847 68.1024C1.70753 68.1024 2.07953 66.2791 3.73402 65.6245L33.3891 53.8916C35.8306 52.9256 38.1266 53.2208 39.0598 54.6208L46.5337 65.8329C47.0829 66.6568 45.7289 68.1024 44.4079 68.1024H3.22847Z" fill="url(#paint10_linear_17_178)"/>
<path d="M3.22847 68.1024C1.70753 68.1024 2.07953 66.2791 3.73402 65.6245L33.3891 53.8916C35.8306 52.9256 38.1266 53.2208 39.0598 54.6208L46.5337 65.8329C47.0829 66.6568 45.7289 68.1024 44.4079 68.1024H3.22847Z" fill="url(#paint11_linear_17_178)"/>
<path d="M64.7657 66.0276C64.4102 66.7564 63.4648 67.3471 62.654 67.3471H50.6943C50.3143 67.3471 50.0137 67.2147 49.8557 66.9777L40.3787 52.7607C39.9665 52.1423 40.6445 51.079 41.7229 50.6523L76.8774 36.7435C78.0896 36.2639 78.972 36.9003 78.4835 37.9019L64.7657 66.0276Z" fill="url(#paint12_linear_17_178)"/>
<path d="M64.7657 66.0276C64.4102 66.7564 63.4648 67.3471 62.654 67.3471H50.6943C50.3143 67.3471 50.0137 67.2147 49.8557 66.9777L40.3787 52.7607C39.9665 52.1423 40.6445 51.079 41.7229 50.6523L76.8774 36.7435C78.0896 36.2639 78.972 36.9003 78.4835 37.9019L64.7657 66.0276Z" fill="url(#paint13_linear_17_178)"/>
<defs>
<linearGradient id="paint0_linear_17_178" x1="63.4188" y1="35.6791" x2="63.4188" y2="67.3472" gradientUnits="userSpaceOnUse">
<stop stop-color="white"/>
<stop offset="1" stop-color="#999999"/>
</linearGradient>
<linearGradient id="paint1_linear_17_178" x1="82.1764" y1="50.5681" x2="2.44551e-07" y2="50.5681" gradientUnits="userSpaceOnUse">
<stop stop-color="#DFF459"/>
<stop offset="1" stop-color="#4ABB6D"/>
</linearGradient>
<linearGradient id="paint2_linear_17_178" x1="63.4188" y1="35.6791" x2="63.4188" y2="67.3472" gradientUnits="userSpaceOnUse">
<stop stop-color="white"/>
<stop offset="1" stop-color="#999999"/>
</linearGradient>
<linearGradient id="paint3_linear_17_178" x1="82.1764" y1="50.5681" x2="2.44551e-07" y2="50.5681" gradientUnits="userSpaceOnUse">
<stop stop-color="#DFF459"/>
<stop offset="1" stop-color="#4ABB6D"/>
</linearGradient>
<linearGradient id="paint4_linear_17_178" x1="63.4188" y1="35.6791" x2="63.4188" y2="67.3472" gradientUnits="userSpaceOnUse">
<stop stop-color="white"/>
<stop offset="1" stop-color="#999999"/>
</linearGradient>
<linearGradient id="paint5_linear_17_178" x1="82.1764" y1="50.5681" x2="2.44551e-07" y2="50.5681" gradientUnits="userSpaceOnUse">
<stop stop-color="#DFF459"/>
<stop offset="1" stop-color="#4ABB6D"/>
</linearGradient>
<linearGradient id="paint6_linear_17_178" x1="63.4188" y1="35.6791" x2="63.4188" y2="67.3472" gradientUnits="userSpaceOnUse">
<stop stop-color="white"/>
<stop offset="1" stop-color="#999999"/>
</linearGradient>
<linearGradient id="paint7_linear_17_178" x1="82.1764" y1="50.5681" x2="2.44551e-07" y2="50.5681" gradientUnits="userSpaceOnUse">
<stop stop-color="#DFF459"/>
<stop offset="1" stop-color="#4ABB6D"/>
</linearGradient>
<linearGradient id="paint8_linear_17_178" x1="63.4188" y1="35.6791" x2="63.4188" y2="67.3472" gradientUnits="userSpaceOnUse">
<stop stop-color="white"/>
<stop offset="1" stop-color="#999999"/>
</linearGradient>
<linearGradient id="paint9_linear_17_178" x1="82.1764" y1="50.5681" x2="2.44551e-07" y2="50.5681" gradientUnits="userSpaceOnUse">
<stop stop-color="#DFF459"/>
<stop offset="1" stop-color="#4ABB6D"/>
</linearGradient>
<linearGradient id="paint10_linear_17_178" x1="63.4188" y1="35.6791" x2="63.4188" y2="67.3472" gradientUnits="userSpaceOnUse">
<stop stop-color="white"/>
<stop offset="1" stop-color="#999999"/>
</linearGradient>
<linearGradient id="paint11_linear_17_178" x1="82.1764" y1="50.5681" x2="2.44551e-07" y2="50.5681" gradientUnits="userSpaceOnUse">
<stop stop-color="#DFF459"/>
<stop offset="1" stop-color="#4ABB6D"/>
</linearGradient>
<linearGradient id="paint12_linear_17_178" x1="63.4188" y1="35.6791" x2="63.4188" y2="67.3472" gradientUnits="userSpaceOnUse">
<stop stop-color="white"/>
<stop offset="1" stop-color="#999999"/>
</linearGradient>
<linearGradient id="paint13_linear_17_178" x1="82.1764" y1="50.5681" x2="2.44551e-07" y2="50.5681" gradientUnits="userSpaceOnUse">
<stop stop-color="#DFF459"/>
<stop offset="1" stop-color="#4ABB6D"/>
</linearGradient>
</defs>
</svg>
