<svg width="163" height="34" viewBox="0 0 163 34" fill="none" xmlns="http://www.w3.org/2000/svg">
<path d="M12.7324 26.488C5.37825 26.488 0.0456141 20.9811 0.0456141 13.8012C0.0456141 6.62128 5.37825 1.11438 12.7324 1.11438C17.1588 1.11438 21.0625 3.31017 23.1885 6.7607L18.3787 9.549C17.2982 7.6669 15.207 6.55158 12.7324 6.55158C8.41053 6.55158 5.62222 9.44444 5.62222 13.8012C5.62222 18.1579 8.41053 21.0508 12.7324 21.0508C15.207 21.0508 17.3331 19.9354 18.3787 18.0533L23.1885 20.8416C21.0973 24.2922 17.1937 26.488 12.7324 26.488ZM28.5822 7.03953C26.8743 7.03953 25.4453 5.61052 25.4453 3.90269C25.4453 2.19485 26.8743 0.765846 28.5822 0.765846C30.29 0.765846 31.719 2.19485 31.719 3.90269C31.719 5.61052 30.29 7.03953 28.5822 7.03953ZM25.9681 26V8.5731H31.1962V26H25.9681ZM45.2341 13.592H41.6442V19.7612C41.6442 21.2599 42.9338 21.3993 45.2341 21.2599V26C38.4028 26.6971 36.4161 24.6407 36.4161 19.7612V13.592H33.6278V8.5731H36.4161V5.26199L41.6442 3.69357V8.5731H45.2341V13.592ZM59.5136 8.5731H65.0902L59.1302 25.4772C57.1783 31.0189 54.0764 33.2147 49.1968 32.9708V28.0912C51.6366 28.0912 52.7868 27.3244 53.5536 25.1984L46.6176 8.5731H52.3685L56.2373 19.2384L59.5136 8.5731ZM91.3446 12.407V14.4982C91.3446 21.957 86.1514 26.488 79.32 26.488C71.6522 26.488 66.1453 20.8416 66.1453 13.836C66.1453 6.7607 71.7568 1.11438 78.9367 1.11438C83.6071 1.11438 87.5455 3.41474 89.6019 6.69099L84.8618 9.40959C83.851 7.80631 81.6552 6.55158 78.9018 6.55158C74.7891 6.55158 71.7219 9.58386 71.7219 13.8709C71.7219 18.0185 74.6496 21.0508 79.3898 21.0508C82.6312 21.0508 84.7572 19.6218 85.6286 17.2865H79.1109V12.407H91.3446ZM105.742 8.5731H110.97V26H105.742V24.3619C104.801 25.6515 103.058 26.488 100.758 26.488C97.2379 26.488 94.2405 23.9785 94.2405 19.2732V8.5731H99.4685V18.5064C99.4685 20.6674 100.828 21.6781 102.501 21.6781C104.418 21.6781 105.742 20.5628 105.742 18.0882V8.5731ZM117.419 7.03953C115.711 7.03953 114.282 5.61052 114.282 3.90269C114.282 2.19485 115.711 0.765846 117.419 0.765846C119.126 0.765846 120.555 2.19485 120.555 3.90269C120.555 5.61052 119.126 7.03953 117.419 7.03953ZM114.804 26V8.5731H120.033V26H114.804ZM136.51 1.60234H141.738V26H136.51V24.3619C135.36 25.6863 133.652 26.488 131.317 26.488C126.751 26.488 122.987 22.4798 122.987 17.2865C122.987 12.0933 126.751 8.08515 131.317 8.08515C133.652 8.08515 135.36 8.88678 136.51 10.2112V1.60234ZM132.363 21.5387C134.768 21.5387 136.51 19.9006 136.51 17.2865C136.51 14.6725 134.768 13.0344 132.363 13.0344C129.958 13.0344 128.215 14.6725 128.215 17.2865C128.215 19.9006 129.958 21.5387 132.363 21.5387ZM150.244 19.3778C150.906 21.1902 152.51 21.8175 154.427 21.8175C155.856 21.8175 157.076 21.2599 157.773 20.4931L161.955 22.898C160.247 25.2681 157.668 26.488 154.357 26.488C148.397 26.488 144.703 22.4798 144.703 17.2865C144.703 12.0933 148.467 8.08515 153.974 8.08515C159.062 8.08515 162.826 12.0236 162.826 17.2865C162.826 18.0185 162.757 18.7156 162.617 19.3778H150.244ZM150.14 15.4742H157.633C157.076 13.4526 155.507 12.7207 153.939 12.7207C151.952 12.7207 150.628 13.6966 150.14 15.4742Z" fill="url(#paint0_linear_58_159)"/>
<defs>
<linearGradient id="paint0_linear_58_159" x1="171.462" y1="14.8525" x2="-1" y2="14.8525" gradientUnits="userSpaceOnUse">
<stop stop-color="#DFF459"/>
<stop offset="1" stop-color="#4ABB6D"/>
</linearGradient>
</defs>
</svg>
