<svg width="51" height="74" viewBox="0 0 51 74" fill="none" xmlns="http://www.w3.org/2000/svg">
<path d="M49.5 25.5C49.5 27.866 48.6793 31.0117 47.2301 34.6626C45.7934 38.2818 43.7931 42.2664 41.5536 46.2674C37.8536 52.8777 33.5412 59.4608 30.1465 64.4002C28.4507 66.8676 26.9873 68.92 25.9485 70.3546C25.7887 70.5752 25.639 70.7813 25.5 70.9719C24.8146 70.0316 23.8674 68.7173 22.7426 67.1177C20.3626 63.7329 17.1917 59.0775 14.0234 53.9884C10.8518 48.8943 7.69969 43.3925 5.34541 38.3108C2.96451 33.1717 1.5 28.6685 1.5 25.5C1.5 12.2452 12.2452 1.5 25.5 1.5C38.7548 1.5 49.5 12.2452 49.5 25.5Z" fill="black" stroke="#A2DD62" stroke-width="3"/>
<path d="M25.5 11L26.7158 14.2858C28.4299 18.9179 32.0821 22.5701 36.7142 24.2842L40 25.5L36.7142 26.7158C32.0821 28.4299 28.4299 32.0821 26.7158 36.7142L25.5 40L24.2842 36.7142C22.5701 32.0821 18.9179 28.4299 14.2858 26.7158L11 25.5L14.2858 24.2842C18.9179 22.5701 22.5701 18.9179 24.2842 14.2858L25.5 11Z" fill="#A2DD62"/>
</svg>
