<svg width="367" height="231" viewBox="0 0 367 231" fill="none" xmlns="http://www.w3.org/2000/svg">
<path d="M334.542 3.19079L337.615 9.60847C340.613 15.8702 346.471 20.2808 353.318 21.4305L360.235 22.592L354.374 25.4109C347.863 28.5421 343.381 34.7562 342.464 41.9218L341.314 50.9088L337.802 42.8115C334.876 36.0666 328.683 31.3041 321.413 30.2092L314.206 29.1236L321.294 25.8607C327.716 22.9044 332.256 16.9577 333.414 9.98345L334.542 3.19079Z" fill="url(#paint0_linear_73_46)"/>
<path d="M39.765 195.399L40.2241 200.235C40.6719 204.954 43.3888 209.16 47.5064 211.508L51.6663 213.88L47.2464 214.308C42.3369 214.782 38.0015 217.71 35.7273 222.087L32.8751 227.576L32.5299 221.56C32.2422 216.549 29.3936 212.039 24.9917 209.626L20.6278 207.234L25.9387 206.811C30.7505 206.428 35.0595 203.684 37.4433 199.487L39.765 195.399Z" fill="url(#paint1_linear_73_46)"/>
<path d="M354.48 43.2475L355.706 45.8353C356.903 48.3602 359.253 50.1448 362.007 50.6186L364.789 51.0973L362.425 52.2223C359.8 53.4719 357.986 55.9655 357.605 58.8478L357.128 62.4628L355.728 59.1983C354.561 56.479 352.076 54.5523 349.152 54.0998L346.254 53.6512L349.111 52.3496C351.701 51.1702 353.537 48.7843 354.015 45.9794L354.48 43.2475Z" fill="url(#paint2_linear_73_46)"/>
<path d="M7.38577 192.972L8.34106 194.988C9.27313 196.955 11.1044 198.345 13.2497 198.715L15.4169 199.088L13.5757 199.964C11.5305 200.937 10.1172 202.88 9.82051 205.126L9.44847 207.942L8.3576 205.399C7.44891 203.28 5.51307 201.779 3.23499 201.427L0.976589 201.077L3.20317 200.063C5.22049 199.144 6.65135 197.285 7.0234 195.1L7.38577 192.972Z" fill="url(#paint3_linear_73_46)"/>
<defs>
<linearGradient id="paint0_linear_73_46" x1="372.737" y1="23.0121" x2="316.706" y2="27.1292" gradientUnits="userSpaceOnUse">
<stop stop-color="#DFF459"/>
<stop offset="1" stop-color="#4ABB6D"/>
</linearGradient>
<linearGradient id="paint1_linear_73_46" x1="59.5803" y1="217.092" x2="22.6998" y2="206.544" gradientUnits="userSpaceOnUse">
<stop stop-color="#DFF459"/>
<stop offset="1" stop-color="#4ABB6D"/>
</linearGradient>
<linearGradient id="paint2_linear_73_46" x1="369.819" y1="51.2867" x2="347.263" y2="52.8526" gradientUnits="userSpaceOnUse">
<stop stop-color="#DFF459"/>
<stop offset="1" stop-color="#4ABB6D"/>
</linearGradient>
<linearGradient id="paint3_linear_73_46" x1="19.3363" y1="199.235" x2="1.76308" y2="200.455" gradientUnits="userSpaceOnUse">
<stop stop-color="#DFF459"/>
<stop offset="1" stop-color="#4ABB6D"/>
</linearGradient>
</defs>
</svg>
